<?xml version="1.0" standalone="no"?>
<!DOCTYPE svg PUBLIC "-//W3C//DTD SVG 20010904//EN"
 "http://www.w3.org/TR/2001/REC-SVG-20010904/DTD/svg10.dtd">
<svg version="1.0" xmlns="http://www.w3.org/2000/svg"
 width="512.000000pt" height="512.000000pt" viewBox="0 0 512.000000 512.000000"
 preserveAspectRatio="xMidYMid meet">
<metadata>
Created by potrace 1.14, written by Peter Selinger 2001-2017
</metadata>
<g transform="translate(0.000000,512.000000) scale(0.100000,-0.100000)"
fill="#000000" stroke="none">
<path d="M2389 4796 c-2 -2 -33 -7 -69 -10 -168 -15 -457 -86 -577 -141 -17
-8 -33 -15 -37 -15 -18 0 -231 -109 -322 -165 -405 -250 -719 -621 -897 -1060
-41 -101 -97 -277 -112 -350 -20 -104 -36 -199 -43 -255 -9 -82 -9 -405 1
-485 74 -622 389 -1175 882 -1545 315 -236 684 -384 1092 -436 116 -15 486 -9
578 10 11 2 40 7 65 11 132 20 325 77 478 141 399 167 756 462 992 819 29 44
60 91 70 105 30 45 137 273 174 372 39 106 87 291 106 405 6 40 14 85 16 100
13 75 11 416 -2 521 -64 518 -277 956 -644 1323 -273 274 -583 458 -965 572
-27 8 -66 19 -85 23 -41 9 -37 8 -75 17 -16 4 -43 9 -60 11 -16 3 -61 10 -100
17 -64 10 -458 23 -466 15z m406 -329 c11 -2 42 -8 68 -11 282 -41 577 -165
841 -354 104 -74 305 -274 387 -384 204 -275 330 -585 373 -918 18 -140 14
-416 -8 -540 -75 -418 -247 -756 -532 -1046 -293 -299 -669 -489 -1094 -555
-93 -15 -386 -18 -491 -7 -474 54 -951 311 -1248 673 -56 68 -161 211 -161
219 0 2 -18 34 -40 70 -22 36 -40 68 -40 70 0 2 -17 42 -39 88 -62 134 -125
340 -146 478 -3 25 -9 63 -13 85 -14 96 -6 454 13 539 3 11 7 32 9 46 13 76
63 251 98 340 176 443 506 804 928 1015 209 104 453 176 645 192 39 3 72 7 74
9 5 5 351 -3 376 -9z"/>
<path d="M3615 3667 c-36 -17 -58 -41 -205 -227 -63 -80 -122 -154 -132 -165
-9 -11 -94 -117 -188 -235 -94 -118 -179 -224 -188 -235 -9 -11 -107 -132
-217 -270 -110 -137 -275 -343 -367 -458 l-167 -207 -88 130 c-48 71 -140 206
-203 299 -63 93 -153 227 -200 296 -47 70 -92 134 -100 144 -53 60 -142 72
-208 29 -52 -35 -76 -87 -69 -149 6 -50 -17 -15 470 -734 75 -110 139 -205
144 -210 4 -6 34 -50 66 -98 73 -108 105 -132 172 -132 28 1 63 7 80 15 18 10
161 179 382 455 194 242 359 447 366 455 6 8 147 184 312 390 165 206 302 377
305 380 28 28 243 306 249 323 16 43 5 115 -23 152 -15 19 -36 40 -47 45 -33
18 -111 22 -144 7z"/>
</g>
</svg>
